PathFileType  4	(X/Y/Z) C:\Users\antoi\Documents\MyRepositories\mobilecap\ResultsAnalysis
DataRate	CameraRate	NumFrames	NumMarkers	Units	OrigDataRate	OrigDataStartFrame	OrigNumFrames
100.0	100.0	4	51	mm	100.0	33	130
Frame#	Time	r_knee			r_shank_antsup			r_ankle			r_calc			r_5meta			r_toe			L_knee			L_shank_antsup			L_ankle			L_calc			L_5meta			L_toe			r_sh2			r_sh3			r_sh4			L_sh2			L_sh3			r_thigh1			r_thigh2			r_thigh3			r_thigh4			r_thigh5			L_thigh1			L_thigh2			L_thigh3			L_thigh4			r.ASIS			r.PSIS			L.ASIS			L.PSIS			C7			R_Shoulder			L_Shoulder			R_Sternum			L_Sternum			R_humerus			R_elbow_med			R_elbow_lat			R_forearm			R_wrist_radius			R_wrist_ulna			L_humerus			L_elbow_med			L_elbow_lat			L_forearm			L_wrist_radius			L_wrist_ulna			R_HJC			L_HJC			R_HJC_reg			L_HJC_reg			
		X1	Y1	Z1	X2	Y2	Z2	X3	Y3	Z3	X4	Y4	Z4	X5	Y5	Z5	X6	Y6	Z6	X7	Y7	Z7	X8	Y8	Z8	X9	Y9	Z9	X10	Y10	Z10	X11	Y11	Z11	X12	Y12	Z12	X13	Y13	Z13	X14	Y14	Z14	X15	Y15	Z15	X16	Y16	Z16	X17	Y17	Z17	X18	Y18	Z18	X19	Y19	Z19	X20	Y20	Z20	X21	Y21	Z21	X22	Y22	Z22	X23	Y23	Z23	X24	Y24	Z24	X25	Y25	Z25	X26	Y26	Z26	X27	Y27	Z27	X28	Y28	Z28	X29	Y29	Z29	X30	Y30	Z30	X31	Y31	Z31	X32	Y32	Z32	X33	Y33	Z33	X34	Y34	Z34	X35	Y35	Z35	X36	Y36	Z36	X37	Y37	Z37	X38	Y38	Z38	X39	Y39	Z39	X40	Y40	Z40	X41	Y41	Z41	X42	Y42	Z42	X43	Y43	Z43	X44	Y44	Z44	X45	Y45	Z45	X46	Y46	Z46	X47	Y47	Z47	X48	Y48	Z48	X49	Y49	Z49	X50	Y50	Z50	X51	Y51	Z51	

33	0.32000000	140.52611	543.77726	-34.88557	174.82230	450.77849	-55.17907	110.87403	117.32372	-102.01821	27.74509	75.66473	-145.03319	231.13903	46.79137	-75.14109	282.98654	76.34855	-144.72669	237.79251	572.00714	-354.67695	202.48110	492.28214	-370.99537	-19.58306	253.60001	-295.55410	-109.49827	253.97986	-233.37100	24.71010	124.24482	-332.56657	93.22373	114.18337	-276.07320	163.26136	339.97152	-39.15145	115.92725	462.65929	-9.23159	85.07125	350.34493	-8.29618	134.33935	550.38993	-358.53448	67.33813	448.63708	-343.55690	193.54186	867.92756	0.58364	210.27498	760.55647	-17.20611	160.88572	725.65808	13.40084	84.82517	847.61426	19.32176	104.71782	736.56690	4.14666	210.73960	862.53691	-354.31695	270.19478	735.23851	-351.61854	112.20359	815.15180	-363.55467	167.05166	690.67765	-364.61234	182.21259	1092.88831	-36.67155	-6.40598	1082.62558	-87.65603	155.10806	1083.59509	-288.06130	-21.50494	1081.04007	-197.34457	74.70692	1641.97686	-162.61439	145.55543	1563.93995	-3.65678	73.02704	1564.87899	-333.38469	177.83243	1526.89189	-148.81646	163.08932	1524.14058	-204.66174	149.69764	1405.84963	61.77188	54.12124	1208.37629	31.47371	77.76212	1226.09013	111.28421	139.04845	1063.96069	135.01435	181.48014	975.61756	126.84719	141.17863	980.42862	150.96317	34.48218	1439.96429	-408.53355	-9.25224	1201.15079	-344.65654	-3.20448	1215.30766	-427.09680	55.23595	1167.78788	-451.76907	169.06655	1029.42157	-460.37105	135.34255	1007.84042	-466.24316	114.31788	967.42709	-47.65438	86.77558	966.39406	-252.76744	132.15415	1000.10829	-64.40242	109.38166	997.71633	-229.82253	
34	0.33000000	146.41964	543.73259	-35.26123	179.58743	450.33385	-55.42070	111.36405	117.65765	-102.25042	27.90455	75.66368	-145.16285	231.21175	46.74497	-75.13730	283.03401	75.82582	-144.83196	260.08794	575.49693	-353.38443	227.57655	494.30438	-370.15064	16.08422	245.05562	-297.56484	-74.34646	238.85032	-235.97486	68.97787	119.68431	-336.03197	137.42295	113.17396	-279.08956	166.53861	339.68131	-39.37903	120.82882	462.98768	-9.52340	88.51619	351.06725	-8.57270	156.66003	549.28217	-357.91364	94.26015	444.55519	-344.02888	204.56278	867.43751	0.06847	219.47960	759.78490	-17.52158	169.75516	725.56245	13.21028	95.42721	848.46285	19.15559	113.78790	737.19556	4.05756	227.87320	866.25123	-353.84624	289.87486	740.23165	-350.08638	130.35424	817.09674	-364.76653	187.66710	693.65862	-365.35140	194.82842	1092.86331	-36.44606	6.36892	1083.49353	-88.37388	168.56532	1085.01837	-287.50889	-8.52678	1082.07033	-198.23376	88.93321	1642.62171	-162.79311	160.20600	1564.89850	-4.13999	86.53595	1565.21374	-333.60483	191.58021	1527.35888	-149.28505	176.96002	1524.46554	-205.04021	166.82153	1407.48597	61.70884	74.39421	1208.17487	33.41134	98.60440	1226.76504	112.88487	164.73864	1066.33302	136.16617	209.89373	979.48227	127.80059	169.45500	982.86251	152.15424	46.14546	1440.07795	-407.91446	-1.01993	1202.81254	-341.41339	4.29186	1215.93677	-423.80999	60.51772	1165.90796	-448.95026	167.80442	1022.07533	-457.63477	133.34625	1002.13055	-462.78746	126.56085	967.66787	-48.26704	99.96103	967.69096	-253.51216	144.55702	1001.02438	-64.32010	122.16124	998.88552	-229.48646	
35	0.34000000	152.21635	543.65201	-35.67530	184.26791	449.82709	-55.64056	111.82376	118.00973	-102.51031	28.05750	75.68088	-145.30462	231.26589	46.70499	-75.13667	283.04068	75.34507	-144.93840	281.53319	578.61135	-351.90813	252.06406	496.02041	-369.18823	52.51606	235.99517	-299.61573	-37.85730	223.16917	-238.57998	113.63966	115.01788	-339.45208	182.04346	112.13418	-282.15819	169.72263	339.36603	-39.60201	125.58602	463.27056	-9.89002	91.80737	351.76862	-8.97942	178.32467	547.45734	-357.05800	121.13439	439.77306	-344.42751	215.45851	866.81826	-0.15467	228.61121	758.88408	-17.55181	178.38234	725.33674	13.12632	105.88533	849.19690	18.89320	122.68998	737.70511	3.91481	244.83922	869.62442	-353.43820	309.15002	744.81164	-348.49613	148.24458	818.81667	-366.12561	207.89317	696.38173	-366.05537	207.46162	1092.63958	-36.41731	19.18560	1084.20183	-89.14533	182.00413	1086.09881	-287.19537	4.47897	1082.86886	-199.15684	103.12221	1643.05914	-162.96387	174.82297	1565.61245	-4.61153	100.09217	1565.35745	-333.84534	205.27393	1527.62538	-149.74130	190.82563	1524.62750	-205.40358	183.78661	1408.90795	61.68907	94.56411	1207.84345	35.29689	119.26234	1227.29654	114.43926	190.22905	1068.72577	137.24619	238.13175	983.49088	128.66476	197.62387	985.44159	153.16092	57.99157	1440.00454	-407.32212	7.39663	1204.39836	-338.20911	12.02118	1216.53037	-420.56910	65.89574	1164.01977	-446.04736	166.13444	1014.96474	-454.73842	131.02278	996.69819	-459.22613	138.83958	967.73257	-48.96205	113.08213	968.69162	-254.31637	156.94969	1001.73861	-64.36989	134.89867	999.74184	-229.31468	
36	0.35000000	157.99859	543.55271	-36.13357	188.91400	449.27829	-55.90354	112.25415	118.37327	-102.79198	28.19328	75.72889	-145.43851	231.30534	46.67717	-75.13682	283.04450	74.92006	-145.05506	302.03069	581.30936	-350.28085	275.87855	497.37177	-368.21074	89.75573	226.59817	-301.66398	0.00013	207.29628	-241.12808	158.53446	110.31907	-342.77796	226.92559	111.06084	-285.24249	172.88895	339.04161	-39.86490	130.29729	463.51984	-10.31934	95.05427	352.46395	-9.44954	199.32487	544.82001	-356.06820	148.00397	434.23818	-344.72881	226.17678	866.05495	-0.13673	237.67008	757.86724	-17.43308	186.80923	724.99114	13.04906	116.17811	849.79768	18.53371	131.43711	738.09331	3.67588	261.66081	872.64433	-353.06296	327.94978	748.89610	-346.86854	165.87548	820.29235	-367.54664	227.67611	698.80524	-366.61164	220.08468	1092.23544	-36.50826	32.02723	1084.72642	-89.95521	195.44366	1086.83076	-287.09293	17.53135	1083.44291	-200.09662	117.28887	1643.28733	-163.14434	189.42562	1566.06452	-5.09089	113.68473	1565.32615	-334.11951	218.98414	1527.70621	-150.20877	204.69804	1524.65596	-205.77915	200.60456	1410.09641	61.68893	114.62946	1207.36759	37.13002	139.74326	1227.67760	115.95113	215.50731	1071.12152	138.24704	266.14586	987.62163	129.42570	225.65905	988.15201	153.98314	69.98961	1439.75387	-406.76818	16.01274	1205.91761	-335.04073	20.04141	1217.06922	-417.38612	71.41358	1162.15371	-443.07771	164.13013	1008.21505	-451.65417	128.41972	991.63314	-455.54496	151.13933	967.62483	-49.69379	126.16644	969.39244	-255.14177	169.32858	1002.20064	-64.52648	147.63927	1000.28227	-229.31851	
